# xmcd
#
# Track frame offsets:
#	150
#	11714
#	28303
#	48669
#	64474
#	77760
#	91277
#	107380
#	122570
#	145119
#	162654
#	180734
#
# Disc length: 2659 seconds
#
# Revision: 0
# Processed by: cddbd v1.5.1PL0 Copyright (c) Steve Scherf et al.
# Submitted via: dBpowerAMP V4.0
#
DISCID=a40a610c
DTITLE=Diamond Rio - One More Day
DYEAR=1900
DGENRE=Country
TTITLE0=That's Just That
TTITLE1=One More Day
TTITLE2=Sweet Summer
TTITLE3=I'm Already Gone
TTITLE4=I Could Do It With My Eyes Closed
TTITLE5='Til the Heartache's Gone
TTITLE6=Here I Go Fallin'
TTITLE7=I Think I Love You
TTITLE8=Hearts Against the Wind
TTITLE9=You Make Me Feel
TTITLE10=The Love of a Woman
TTITLE11=I'm Trying
EXTD=My name is Aaron Tippetts
EXTT0=
EXTT1=
EXTT2=
EXTT3=
EXTT4=
EXTT5=
EXTT6=
EXTT7=
EXTT8=
EXTT9=
EXTT10=
EXTT11=
PLAYORDER=
